<svg width="312" height="75" viewBox="0 0 312 75" fill="none" xmlns="http://www.w3.org/2000/svg">
<g clip-path="url(#clip0_2_26)">
<path d="M204.901 74.9705C210.892 74.9117 216.572 73.1457 220.695 69.9664C224.897 66.7876 227.231 62.4905 227.231 58.0161V17.1017C227.231 12.569 224.897 8.27115 220.774 5.03361C216.572 1.85435 210.892 0.0295105 204.901 0.0295105H150.515C144.524 0.0885269 138.844 1.85435 134.72 5.03361C130.518 8.2714 128.184 12.5693 128.184 17.1017V58.0751C128.262 67.3766 138.221 74.9117 150.515 74.9705" fill="#CF381E"/>
<path d="M189.495 39.8255C187.394 45.1237 190.818 50.4219 198.054 48.303C195.953 52.1294 192.451 57.8395 192.451 63.7854C192.451 63.7854 192.451 67.7887 196.342 68.7895C196.342 68.7895 201.789 69.7903 200.622 66.1404C199.766 63.8444 199.533 61.4899 199.922 59.1352C201.244 54.2486 203.268 49.4803 205.913 44.8886C205.913 44.8886 214.238 31.7604 219.062 25.6382C219.062 25.6382 221.085 22.5182 216.961 22.5182C215.716 22.5182 214.549 22.9891 213.771 23.7541L202.023 39.5899C200.232 42.0627 198.522 42.8282 197.198 42.8282C194.242 42.8282 194.864 39.2371 195.332 37.9414C196.654 33.5262 198.755 29.2884 201.556 25.2256C203.657 21.7525 199.455 21.4584 199.455 21.4584C196.809 20.9284 194.787 24.2255 194.787 24.2255L190.118 31.4073C187.084 35.4106 183.738 39.2371 180.159 42.946C180.159 42.946 179.536 43.5344 179.07 43.2993C178.602 43.0048 178.835 42.4163 178.835 42.4163C179.614 37.5298 180.937 32.7025 182.726 27.9339C182.804 27.6393 182.882 27.4043 182.882 27.1099C182.96 26.4622 182.726 25.8148 182.182 25.3434C181.637 24.8137 180.86 24.5193 180.003 24.5193C177.902 24.343 176.891 25.1083 175.024 26.8151C170.901 30.6421 166.076 36.4109 163.742 39.0015C163.509 39.2956 163.042 39.2368 163.042 38.8247C163.042 37.6471 168.488 24.9312 168.488 24.9312C168.488 24.9312 169.11 23.1654 167.244 22.5767C167.244 22.5767 164.366 21.2228 162.03 23.8716L150.826 35.4106C149.971 36.2936 149.504 35.9995 149.504 35.9995V35.234L151.293 27.6989C152.694 21.9298 150.049 21.6352 148.337 21.3998C147.092 21.3998 145.769 21.6939 144.68 22.2241C141.179 23.519 138.533 28.7587 138.533 28.7587C138.533 28.7587 137.755 30.6423 139.467 31.4073C140.012 31.6426 140.634 31.8194 141.256 31.7607C143.746 31.6429 144.213 28.1695 146.003 28.1695C146.314 28.1695 146.314 28.4641 146.314 28.5231L140.556 46.8317C140.167 47.8911 140.79 49.0094 141.957 49.5984C142.735 49.9517 143.591 50.0105 144.447 49.8925C145.225 49.7162 145.925 49.304 146.392 48.7743L148.492 46.3018C151.527 42.2395 157.129 36.4114 157.674 36.4114C157.907 36.4114 157.985 36.4114 157.985 36.5877L155.884 47.3614C155.65 48.3032 156.351 49.3038 157.518 49.7159C158.607 50.01 159.775 49.9512 160.785 49.5391C161.953 48.8329 162.964 47.9496 163.665 46.9488C164.831 45.5361 170.434 40.532 173.856 35.9403C174.091 35.6457 174.324 35.9403 174.246 36.1171C173.546 38.5306 173 44.9471 172.923 46.5366C172.767 49.6569 175.957 50.01 176.036 50.01C178.137 50.1278 180.16 49.4211 181.327 48.1264" fill="white"/>
<path d="M22.0571 46.9485H15.8324V36.4109C15.9104 35.2335 15.5987 34.0559 14.899 33.0553C14.1986 32.2898 12.9538 31.8189 11.7088 31.9367C10.6194 31.9367 9.60796 32.1135 8.75224 32.5257C7.81819 32.9966 7.04046 33.6438 6.49609 34.3505V46.9483H0.271362V27.8164H3.77226L6.10674 30.4062C6.72911 29.9941 7.35149 29.6407 7.97386 29.2879C8.59624 28.9933 9.21861 28.7582 9.91899 28.5224C10.619 28.2868 11.3197 28.1103 12.0198 27.9927C12.7198 27.8749 13.4982 27.8164 14.2763 27.8164C15.132 27.8164 15.9877 27.8747 16.7658 28.0515C17.3881 28.2283 18.0105 28.4046 18.6329 28.6987C19.1002 28.9933 19.5666 29.3467 19.9556 29.7C20.4227 30.1704 20.734 30.5826 21.0454 31.0539C21.5121 30.7003 22.0568 30.2885 22.6791 29.9353C23.3015 29.582 24.0016 29.2286 24.7796 28.9345C25.48 28.5814 26.2584 28.2868 27.1141 28.0515C28.0478 27.8747 28.9812 27.7569 29.9926 27.7569C31.2374 27.7569 32.4048 27.9927 33.4938 28.4046C34.5052 28.8758 35.3613 29.4644 35.906 30.1707C36.5284 31.0542 36.9951 31.9372 37.2284 32.9378C37.5398 34.0562 37.6954 35.1753 37.6954 36.3524V46.9488H31.3937V36.4112C31.5494 35.2338 31.238 34.0562 30.4603 33.0556C29.7599 32.2901 28.5925 31.8192 27.3478 31.937C26.3364 31.937 25.3246 32.1138 24.3909 32.5259C23.4575 32.9968 22.6015 33.5857 22.0571 34.3507" fill="#174880"/>
<path d="M58.0034 38.2357H52.4794C51.312 38.177 50.2229 38.4128 49.2112 38.8837C48.5888 39.3546 48.1998 40.0023 48.1998 40.7085C48.1998 41.3562 48.5111 41.9449 49.1335 42.4158C49.8335 42.8279 50.7673 43.063 51.701 43.0043C52.401 43.0043 53.1017 42.9457 53.8018 42.7689C54.4242 42.6511 55.0465 42.4743 55.5912 42.2393C56.1359 41.9452 56.6026 41.6503 56.992 41.3562C57.459 41.0026 57.77 40.6495 58.0814 40.2964M58.0034 44.8296C57.1473 45.4768 56.0586 46.0067 54.9689 46.3603C53.4908 46.7725 51.9343 47.0075 50.3782 46.9488C49.2892 47.0075 48.1221 46.8312 47.1104 46.5366C46.1766 46.2425 45.3209 45.8307 44.5429 45.3007C43.8425 44.7118 43.2981 44.0643 42.9091 43.3581C42.5201 42.5926 42.3644 41.7686 42.3644 40.9446C42.3644 37.4125 46.0213 35.1162 51.857 35.1162H58.0811V34.0564C58.0811 33.3502 57.5364 32.7617 56.7586 32.4671C55.5136 32.0548 54.1131 31.8194 52.7127 31.8782C51.1566 31.8782 49.6005 32.0548 48.1221 32.2903C46.955 32.5261 45.7876 32.8202 44.6209 33.1739L43.9208 29.2291C44.3098 29.0528 44.8545 28.935 45.5546 28.7587C46.177 28.5819 46.9553 28.4641 47.6557 28.2873C48.3554 28.1695 49.2895 28.052 50.2229 27.9339C51.1566 27.8166 52.168 27.8166 53.1797 27.8166C56.0586 27.6391 59.0151 28.3463 61.1936 29.7585C63.1387 31.2898 64.0724 33.3497 63.9168 35.4103V46.9485H59.4818L58.0034 44.8296Z" fill="#174880"/>
<path d="M93.0936 27.5218L83.0567 37.0589L94.4944 46.8898H86.7139L76.1322 37.1766V46.8898H69.9855V20.6926H76.1322V37.1766L85.5468 27.5218H93.0936Z" fill="#174880"/>
<path d="M106.865 32.0543C106.087 32.0543 105.309 32.1135 104.609 32.2898C103.987 32.4076 103.364 32.6435 102.897 32.9375C102.353 33.1734 101.964 33.526 101.652 33.9384C101.341 34.3505 101.108 34.7624 100.952 35.2335H111.923C111.923 34.8214 111.845 34.4093 111.612 33.9974C111.456 33.6438 111.067 33.2909 110.678 32.9968C110.211 32.7022 109.666 32.4669 109.122 32.2901C108.344 32.1138 107.566 31.9957 106.865 32.0543ZM108.032 42.828C108.966 42.828 109.977 42.7689 110.911 42.5921C111.767 42.4744 112.623 42.298 113.401 42.0625C114.101 41.8859 114.801 41.6503 115.424 41.3562C115.735 41.2385 116.046 41.0616 116.358 40.8853L117.525 45.0647C116.202 45.5946 114.801 46.0655 113.323 46.4186C111.611 46.7722 109.822 46.9485 108.032 46.9485C106.087 46.9485 104.142 46.7132 102.275 46.2423C100.796 45.8304 99.318 45.1825 98.151 44.2997C96.9836 43.4752 96.1279 42.4161 95.5835 41.2975C94.8834 40.1198 94.5721 38.8247 94.4941 37.4707C94.4941 36.2344 94.7274 34.9977 95.2725 33.8206C95.8168 32.6435 96.5949 31.6424 97.6843 30.7006C98.6957 29.818 100.018 29.1108 101.497 28.6404C104.842 27.6391 108.654 27.6391 112 28.6404C113.401 29.0525 114.568 29.7585 115.579 30.5826C116.513 31.4071 117.213 32.3489 117.68 33.3497C118.069 34.4095 118.303 35.5274 118.303 36.6467C118.303 36.9408 118.303 37.2939 118.303 37.6468C118.225 38.0004 118.147 38.3535 118.069 38.6476H100.874C100.952 39.2953 101.185 39.884 101.574 40.4142C101.886 40.9439 102.43 41.4148 103.053 41.7681C103.675 42.18 104.375 42.4741 105.231 42.5921C106.087 42.828 107.021 42.9457 108.032 42.9457V42.828H108.032Z" fill="#174880"/>
<path d="M233.3 30.524L241.547 22.9886H243.416V27.7569H250.496V31.878H243.416V39.7665C243.416 40.1786 243.493 40.6495 243.649 41.1204C243.804 41.415 244.037 41.7094 244.349 42.0035C244.66 42.1803 245.049 42.3571 245.438 42.4161C245.827 42.5336 246.217 42.5924 246.683 42.5924C247.383 42.5924 248.083 42.5336 248.707 42.3573C249.328 42.2983 249.873 42.1215 250.418 41.9452V46.1245C249.796 46.3603 249.096 46.5366 248.317 46.6544C246.138 47.0076 243.882 46.9485 241.781 46.4776C240.77 46.2423 239.914 45.8304 239.135 45.3005C238.514 44.7706 237.969 44.1229 237.658 43.4169C237.346 42.6514 237.113 41.7684 237.19 40.9441V31.9957H233.145" fill="#174880"/>
<path d="M261.077 31.7602C262.011 30.5825 263.177 29.5822 264.656 28.8165C265.901 28.1102 267.457 27.7566 269.091 27.8164C269.559 27.7569 270.025 27.7569 270.492 27.8164L271.348 27.9337C271.348 27.9337 271.192 28.9935 270.258 32.2901C269.792 32.2318 269.325 32.1723 268.859 32.2318C267.768 32.1723 266.757 32.3491 265.746 32.6437C264.813 32.9378 264.034 33.4087 263.412 33.9976C262.788 34.5861 262.244 35.2928 261.932 36.0578C261.622 36.9996 261.466 37.9414 261.466 38.8839V46.9488H255.242V27.8164H259.132" fill="#174880"/>
<path d="M299.28 31.9957C298.58 31.937 297.879 32.0542 297.256 32.2315C296.635 32.4079 296.09 32.6434 295.544 32.9375C295.078 33.1733 294.689 33.526 294.299 33.8796C293.989 34.2332 293.677 34.5856 293.521 34.9977V40.4142C293.755 40.7673 294.066 41.0614 294.455 41.356C294.845 41.6501 295.234 41.8856 295.7 42.121C296.244 42.3568 296.789 42.5331 297.334 42.6509C298.89 42.9452 300.524 42.8865 302.002 42.4738C302.702 42.1797 303.403 41.8266 303.87 41.3557C304.415 40.8848 304.803 40.2959 305.037 39.7072C305.27 39.001 305.425 38.2355 305.504 37.4702C305.504 36.7638 305.348 35.9988 305.037 35.233C304.803 34.5851 304.415 33.9969 303.87 33.467C303.324 32.9961 302.702 32.5834 301.925 32.3481C301.146 32.0538 300.369 31.9362 299.513 31.9362M300.991 27.8164C302.703 27.7569 304.337 28.0515 305.816 28.5814C307.138 29.1106 308.227 29.8178 309.16 30.7596C310.017 31.7014 310.717 32.7612 311.106 33.8796C311.496 35.057 311.729 36.2931 311.729 37.4707C311.729 38.7066 311.496 39.9435 311.029 41.1204C310.64 42.2393 309.939 43.2398 309.006 44.1229C308.071 45.0059 306.982 45.7126 305.66 46.1835C304.259 46.7132 302.625 46.9485 301.07 46.9485C299.513 46.9485 298.035 46.7722 296.635 46.3601C295.467 45.9474 294.378 45.4178 293.522 44.6528V54.6017H287.298V27.8164H290.955L293.366 30.1121C294.3 29.4054 295.467 28.8165 296.789 28.3461C298.112 27.9924 299.513 27.7569 300.914 27.8164H300.991Z" fill="#174880"/>
<path d="M277.728 19.9861C275.938 19.9861 274.538 21.046 274.538 22.3997C274.538 23.7534 275.939 24.8727 277.728 24.8727C279.517 24.8727 280.918 23.7536 280.918 22.3997C280.995 21.752 280.606 21.1638 279.983 20.6926C279.439 20.2217 278.583 19.9276 277.728 19.9276M280.762 46.9485H274.538V27.8164H280.762V46.9485Z" fill="#174880"/>
</g>
<defs>
<clipPath id="clip0_2_26">
<rect width="312" height="75" fill="white"/>
</clipPath>
</defs>
</svg>
