<?xml version="1.0" encoding="iso-8859-1"?>
<!-- Generator: Adobe Illustrator 19.0.0, SVG Export Plug-In . SVG Version: 6.00 Build 0)  -->
<svg version="1.1" id="Capa_1" xmlns="http://www.w3.org/2000/svg" xmlns:xlink="http://www.w3.org/1999/xlink" x="0px" y="0px"
	 viewBox="0 0 512 512" style="enable-background:new 0 0 512 512;" xml:space="preserve">
<path style="fill:#C3C8D1;" d="M475.193,187.453l-81.35-59.169l-83.836-60.977l-44.005-32.006c-5.958-4.333-14.032-4.333-19.99,0
	l-44.247,32.183l-83.572,60.784l-81.372,59.185c-4.396,3.197-6.997,8.306-6.997,13.742v286.269c0,9.385,7.607,16.993,16.992,16.993
	h418.382c9.385,0,16.992-7.607,16.992-16.993V201.196C482.19,195.76,479.589,190.652,475.193,187.453z"/>
<path style="fill:#B8BDC4;" d="M49.825,487.466V207.197c0-5.436,2.601-10.545,6.997-13.742l81.372-59.185l83.572-60.785
	l44.248-32.183c1.508-1.097,3.152-1.913,4.863-2.455l-4.874-3.545c-5.958-4.333-14.032-4.333-19.99,0l-44.247,32.183l-83.572,60.785
	l-81.372,59.185c-4.396,3.197-6.997,8.305-6.997,13.742v286.269c0,9.385,7.607,16.992,16.992,16.992h20.001
	C57.433,504.458,49.825,496.85,49.825,487.466z"/>
<path style="fill:#E4EAF8;" d="M247.495,338.343L46.817,504.458h418.381L264.52,338.343
	C259.581,334.255,252.434,334.255,247.495,338.343z"/>
<g>
	<path style="fill:#D8DCE5;" d="M53.955,498.548l-7.138,5.908h19.997C61.671,504.457,57.07,502.16,53.955,498.548z"/>
	<path style="fill:#D8DCE5;" d="M271,343.708l194.198,160.75c9.385,0,16.992-7.607,16.992-16.993V201.195L271,343.708z"/>
	<path style="fill:#D8DCE5;" d="M29.824,201.195v286.269c0,9.385,7.607,16.993,16.992,16.993l194.198-160.749L29.824,201.195z"/>
</g>
<path style="fill:#C3C8D1;" d="M49.825,214.692l-20.001-13.497l0,0v286.269c0,1.76,0.268,3.457,0.764,5.053
	c2.151,6.917,8.604,11.939,16.229,11.939l7.138-5.908c-2.567-2.977-4.13-6.844-4.13-11.084V214.692z"/>
<path style="fill:#FFC850;" d="M198.342,7.457h199.511c7.272,0,13.167,5.895,13.167,13.167V249.22L271,343.707l-6.481-5.365
	c-4.938-4.088-12.086-4.088-17.024,0l-6.48,5.364L100.995,249.22c0-5.337,0-81.413,0-144.416L198.342,7.457z"/>
<g>
	<path style="fill:#F9B428;" d="M120.995,84.804l-20.001,20.001c0,63.003,0,139.077,0,144.416l20.001,13.497V84.804z"/>
	<path style="fill:#F9B428;" d="M185.174,104.805h-84.18l97.348-97.348c0,43.346,0,80.504,0,84.181
		C198.342,98.909,192.447,104.805,185.174,104.805z"/>
</g>
<path style="fill:#E59F23;" d="M198.342,7.457l-97.348,97.348h20.001l77.347-77.347C198.342,21.017,198.342,14.316,198.342,7.457z"
	/>
<path style="fill:#FF5050;" d="M375.192,102.118V7.457h-51.338v94.661c0,1.164,1.285,1.869,2.267,1.245l22.61-14.386
	c0.483-0.307,1.101-0.307,1.584,0l22.61,14.386C373.907,103.987,375.192,103.282,375.192,102.118z"/>
<path style="fill:#ED3A3A;" d="M343.855,7.457h-20.001v94.661c0,1.164,1.285,1.87,2.267,1.245l17.734-11.284V7.457z"/>
<path d="M356.374,147.588H155.626c-4.143,0-7.5,3.358-7.5,7.5c0,4.142,3.357,7.5,7.5,7.5h200.746c4.143,0,7.5-3.358,7.5-7.5
	C363.873,150.946,360.516,147.588,356.374,147.588z"/>
<path d="M356.374,190.918H155.626c-4.143,0-7.5,3.358-7.5,7.5c0,4.142,3.357,7.5,7.5,7.5h200.746c4.143,0,7.5-3.358,7.5-7.5
	C363.873,194.276,360.516,190.918,356.374,190.918z"/>
<path d="M356.374,234.248H155.626c-4.143,0-7.5,3.358-7.5,7.5c0,4.142,3.357,7.5,7.5,7.5h200.746c4.143,0,7.5-3.358,7.5-7.5
	C363.873,237.606,360.516,234.248,356.374,234.248z"/>
<path d="M22.317,201.212c0,0.009-0.002,0.017-0.002,0.025v286.269c0,13.506,10.988,24.493,24.493,24.493h0.001
	c0.013,0,0.025,0,0.038,0h191.651c4.143,0,7.5-3.358,7.5-7.5s-3.357-7.5-7.5-7.5H67.634l184.637-152.835
	c2.069-1.713,5.23-1.843,7.458,0l184.636,152.835H273.501c-4.143,0-7.5,3.358-7.5,7.5s3.357,7.5,7.5,7.5h191.679
	c0.001,0,0.002,0,0.003,0c0.001,0,0.003,0,0.004,0c0,0,0.001,0,0.002,0c0,0,0.001,0,0.002,0c13.456,0,24.493-10.959,24.493-24.492
	V363.834c0-4.142-3.357-7.5-7.5-7.5c-4.143,0-7.5,3.358-7.5,7.5c0,0.707,0.002,123.094-0.006,123.802
	c-0.061,4.251-2.952,7.988-7.151,9.062L283.496,344.362c8.277-5.585,182.778-123.34,191.188-129.016v113.485
	c0,4.142,3.357,7.5,7.5,7.5c4.143,0,7.5-3.358,7.5-7.5V201.237c0-0.001,0-0.002,0-0.003v-0.002
	c-0.001-7.807-3.772-15.21-10.087-19.803l-61.084-44.428V20.668C418.513,9.272,409.243,0,397.846,0c-4.128,0-196.491,0-199.512,0
	c-1.889,0-3.872,0.765-5.304,2.197L95.683,99.545c-1.449,1.448-2.196,3.411-2.196,5.303v32.153L32.402,181.43
	C26.094,186.018,22.325,193.412,22.317,201.212z M271.451,334.391c-2.449-2.027-6.81-6.265-14.732-6.537
	c-8.7-0.299-13.711,4.501-16.171,6.537l-61.962-41.813h154.826C327.328,296.686,280.025,328.606,271.451,334.391z M228.505,344.362
	c-9.944,8.231-175.903,145.606-184.03,152.333c-4.312-1.096-7.156-4.975-7.156-9.19V215.348
	C42.987,219.173,215.093,335.311,228.505,344.362z M470.773,193.561c1.46,1.062,2.559,2.517,3.217,4.156l-55.476,37.436V155.55
	L470.773,193.561z M403.512,20.668v224.608l0,0l-47.87,32.303H156.356l-47.567-32.098l-0.302-0.204c0-4.417,0-128.261,0-132.928
	h76.68c11.397,0,20.668-9.272,20.668-20.667V15.001h110.511v87.16c0,7.071,7.826,11.369,13.795,7.572l19.374-12.328l19.376,12.329
	c5.957,3.79,13.794-0.485,13.794-7.573v-87.16h15.161C400.97,15.001,403.512,17.543,403.512,20.668z M367.684,15.001v76.186
	l-13.351-8.495c-2.927-1.862-6.707-1.864-9.638,0l-13.351,8.495V15.001H367.684z M190.834,25.608v66.073
	c0,3.124-2.542,5.666-5.667,5.666h-66.072L190.834,25.608z M41.225,193.561l52.261-38.01v79.604L38.01,197.718
	C38.666,196.078,39.765,194.623,41.225,193.561z"/>
<g>
</g>
<g>
</g>
<g>
</g>
<g>
</g>
<g>
</g>
<g>
</g>
<g>
</g>
<g>
</g>
<g>
</g>
<g>
</g>
<g>
</g>
<g>
</g>
<g>
</g>
<g>
</g>
<g>
</g>
</svg>
