<?xml version="1.0" encoding="iso-8859-1"?>
<!-- Generator: Adobe Illustrator 21.0.0, SVG Export Plug-In . SVG Version: 6.00 Build 0)  -->
<svg xmlns="http://www.w3.org/2000/svg" xmlns:xlink="http://www.w3.org/1999/xlink" version="1.1" id="Capa_1" x="0px" y="0px" viewBox="0 0 511.969 511.969" style="enable-background:new 0 0 511.969 511.969;" xml:space="preserve" width="512" height="512">
<g>
	<g>
		<g>
			<path style="fill:#E4E3E1;" d="M420.573,457.553H91.293c-20.174,0-36.587-16.413-36.587-36.587V91.687     c0-20.174,16.413-36.587,36.587-36.587h329.28c20.174,0,36.587,16.413,36.587,36.587v329.28     C457.159,441.14,440.746,457.553,420.573,457.553z"/>
		</g>
		<circle style="fill:#D1D0CF;" cx="100.439" cy="100.833" r="17.722"/>
		<circle style="fill:#D1D0CF;" cx="411.426" cy="100.833" r="17.722"/>
		<circle style="fill:#D1D0CF;" cx="100.439" cy="411.82" r="17.722"/>
		<circle style="fill:#D1D0CF;" cx="411.426" cy="411.82" r="17.722"/>
		<path style="fill:#FFC964;" d="M396.824,138.707c-10.658-4.132-19.14-12.613-23.271-23.271    c-3.412-8.802-11.881-14.602-21.321-14.602H159.634c-9.44,0-17.909,5.8-21.321,14.602c-4.131,10.658-12.613,19.14-23.271,23.271    c-8.802,3.412-14.602,11.881-14.602,21.321v192.598c0,9.44,5.8,17.909,14.602,21.321c10.658,4.132,19.14,12.613,23.271,23.271    c3.412,8.802,11.881,14.602,21.321,14.602h192.598c9.44,0,17.909-5.8,21.321-14.602c4.131-10.658,12.613-19.14,23.271-23.271    c8.802-3.412,14.602-11.881,14.602-21.321V160.028C411.426,150.588,405.625,142.119,396.824,138.707z"/>
		<path style="fill:#D1D0CF;" d="M74.706,420.967V91.687c0-20.174,16.413-36.587,36.587-36.587h-20    c-20.174,0-36.587,16.413-36.587,36.587v329.28c0,20.174,16.413,36.587,36.587,36.587h20    C91.119,457.553,74.706,441.14,74.706,420.967z"/>
		<path style="fill:#C1C1C1;" d="M102.718,100.833c0-6.076,3.061-11.434,7.722-14.627c-2.847-1.95-6.289-3.095-10-3.095    c-9.787,0-17.722,7.934-17.722,17.722s7.934,17.722,17.722,17.722c3.711,0,7.153-1.145,10-3.095    C105.779,112.267,102.718,106.91,102.718,100.833z"/>
		<path style="fill:#C1C1C1;" d="M413.704,100.833c0-6.076,3.061-11.434,7.722-14.627c-2.847-1.95-6.289-3.095-10-3.095    c-9.787,0-17.722,7.934-17.722,17.722s7.934,17.722,17.722,17.722c3.711,0,7.153-1.145,10-3.095    C416.765,112.267,413.704,106.91,413.704,100.833z"/>
		<path style="fill:#C1C1C1;" d="M102.718,411.82c0-6.076,3.061-11.434,7.722-14.627c-2.847-1.95-6.289-3.095-10-3.095    c-9.787,0-17.722,7.934-17.722,17.722s7.934,17.722,17.722,17.722c3.711,0,7.153-1.145,10-3.095    C105.779,423.254,102.718,417.896,102.718,411.82z"/>
		<path style="fill:#C1C1C1;" d="M413.704,411.82c0-6.076,3.061-11.434,7.722-14.627c-2.847-1.95-6.289-3.095-10-3.095    c-9.787,0-17.722,7.934-17.722,17.722s7.934,17.722,17.722,17.722c3.711,0,7.153-1.145,10-3.095    C416.765,423.254,413.704,417.896,413.704,411.82z"/>
		<path style="fill:#F3A334;" d="M158.313,397.218c-4.131-10.658-12.614-19.14-23.271-23.271    c-8.802-3.412-14.602-11.881-14.602-21.321V160.028c0-9.44,5.8-17.909,14.602-21.321c10.658-4.132,19.14-12.614,23.271-23.271    c3.411-8.802,11.881-14.602,21.321-14.602h-20c-9.44,0-17.909,5.8-21.321,14.602c-4.131,10.658-12.614,19.14-23.271,23.271    c-8.802,3.412-14.602,11.881-14.602,21.321v192.598c0,9.44,5.8,17.909,14.602,21.321c10.658,4.132,19.14,12.614,23.271,23.271    c3.411,8.802,11.881,14.602,21.321,14.602h20C170.194,411.82,161.724,406.02,158.313,397.218z"/>
	</g>
	<g>
		<path d="M100.491,125.713c13.907,0,25.222-11.314,25.222-25.222S114.398,75.27,100.491,75.27s-25.221,11.314-25.221,25.222    S86.584,125.713,100.491,125.713z M100.491,90.27c5.637,0,10.222,4.585,10.222,10.222s-4.585,10.222-10.222,10.222    c-5.636,0-10.221-4.585-10.221-10.222S94.855,90.27,100.491,90.27z"/>
		<path d="M411.479,75.27c-13.907,0-25.222,11.314-25.222,25.222s11.314,25.222,25.222,25.222s25.222-11.314,25.222-25.222    S425.386,75.27,411.479,75.27z M411.479,110.713c-5.637,0-10.222-4.585-10.222-10.222s4.585-10.222,10.222-10.222    s10.222,4.585,10.222,10.222S417.115,110.713,411.479,110.713z"/>
		<path d="M100.491,386.257c-13.907,0-25.221,11.314-25.221,25.222S86.584,436.7,100.491,436.7s25.222-11.314,25.222-25.222    S114.398,386.257,100.491,386.257z M100.491,421.7c-5.636,0-10.221-4.585-10.221-10.222s4.585-10.222,10.221-10.222    c5.637,0,10.222,4.585,10.222,10.222S106.128,421.7,100.491,421.7z"/>
		<path d="M411.479,386.257c-13.907,0-25.222,11.314-25.222,25.222s11.314,25.222,25.222,25.222s25.222-11.314,25.222-25.222    S425.386,386.257,411.479,386.257z M411.479,421.7c-5.637,0-10.222-4.585-10.222-10.222s4.585-10.222,10.222-10.222    s10.222,4.585,10.222,10.222S417.115,421.7,411.479,421.7z"/>
		<path d="M504.469,127.129c4.143,0,7.5-3.358,7.5-7.5s-3.357-7.5-7.5-7.5h-39.757V91.345c0-24.31-19.777-44.087-44.087-44.087    h-20.784V7.5c0-4.142-3.357-7.5-7.5-7.5s-7.5,3.358-7.5,7.5v39.758h-53.179V7.5c0-4.142-3.357-7.5-7.5-7.5s-7.5,3.358-7.5,7.5    v39.758h-53.178V7.5c0-4.142-3.357-7.5-7.5-7.5s-7.5,3.358-7.5,7.5v39.758h-53.178V7.5c0-4.142-3.357-7.5-7.5-7.5    s-7.5,3.358-7.5,7.5v39.758h-53.178V7.5c0-4.142-3.357-7.5-7.5-7.5s-7.5,3.358-7.5,7.5v39.758H91.345    c-24.309,0-44.086,19.777-44.086,44.087v20.784H7.5c-4.143,0-7.5,3.358-7.5,7.5s3.357,7.5,7.5,7.5h39.759v53.178H7.5    c-4.143,0-7.5,3.358-7.5,7.5s3.357,7.5,7.5,7.5h39.759v53.178H7.5c-4.143,0-7.5,3.357-7.5,7.5s3.357,7.5,7.5,7.5h39.759v53.178    H7.5c-4.143,0-7.5,3.357-7.5,7.5s3.357,7.5,7.5,7.5h39.759v53.178H7.5c-4.143,0-7.5,3.357-7.5,7.5s3.357,7.5,7.5,7.5h39.759    v20.784c0,24.309,19.777,44.086,44.086,44.086h20.784v39.758c0,4.143,3.357,7.5,7.5,7.5s7.5-3.357,7.5-7.5v-39.758h53.178v39.758    c0,4.143,3.357,7.5,7.5,7.5s7.5-3.357,7.5-7.5v-39.758h53.178v39.758c0,4.143,3.357,7.5,7.5,7.5s7.5-3.357,7.5-7.5v-39.758h53.178    v39.758c0,4.143,3.357,7.5,7.5,7.5s7.5-3.357,7.5-7.5v-39.758h53.179v39.758c0,4.143,3.357,7.5,7.5,7.5s7.5-3.357,7.5-7.5v-39.758    h20.784c24.31,0,44.087-19.777,44.087-44.086v-20.784h39.757c4.143,0,7.5-3.357,7.5-7.5s-3.357-7.5-7.5-7.5h-39.757v-53.178    h39.757c4.143,0,7.5-3.357,7.5-7.5s-3.357-7.5-7.5-7.5h-39.757v-53.178h39.757c4.143,0,7.5-3.357,7.5-7.5s-3.357-7.5-7.5-7.5    h-39.757v-53.178h39.757c4.143,0,7.5-3.358,7.5-7.5s-3.357-7.5-7.5-7.5h-39.757v-53.178H504.469z M420.625,449.711H91.345    c-16.038,0-29.086-13.048-29.086-29.086V91.345c0-16.039,13.048-29.087,29.086-29.087h329.28    c16.038,0,29.087,13.048,29.087,29.087c0,3.774,0,298.694,0,300.976c0,0.007-0.001,0.013-0.001,0.019s0.001,0.013,0.001,0.019    v28.265C449.712,436.663,436.663,449.711,420.625,449.711z"/>
		<path d="M399.586,380.597c11.599-4.495,19.392-15.873,19.392-28.313v-78.8c0-4.143-3.357-7.5-7.5-7.5s-7.5,3.357-7.5,7.5v78.8    c0,6.295-3.943,12.053-9.813,14.327c-12.619,4.893-22.662,14.936-27.554,27.555c-2.274,5.869-8.032,9.813-14.327,9.813H159.686    c-6.295,0-12.053-3.943-14.327-9.813c-4.893-12.619-14.936-22.662-27.555-27.554c-5.869-2.274-9.813-8.032-9.813-14.327V159.686    c0-6.295,3.943-12.053,9.813-14.328c12.619-4.892,22.661-14.935,27.554-27.554c2.274-5.869,8.032-9.813,14.327-9.813h78.799    c4.143,0,7.5-3.358,7.5-7.5s-3.357-7.5-7.5-7.5h-78.799c-12.439,0-23.818,7.793-28.313,19.391    c-3.371,8.697-10.293,15.618-18.989,18.989c-11.599,4.496-19.392,15.875-19.392,28.314v192.598    c0,12.439,7.793,23.818,19.392,28.313c8.696,3.371,15.618,10.293,18.989,18.988c4.495,11.6,15.874,19.393,28.313,19.393h192.599    c12.439,0,23.818-7.793,28.313-19.392C383.969,390.89,390.89,383.969,399.586,380.597z"/>
		<path d="M273.484,107.991h78.8c6.295,0,12.053,3.943,14.327,9.813c4.891,12.619,14.934,22.662,27.554,27.554    c5.869,2.275,9.813,8.033,9.813,14.328v78.798c0,4.143,3.357,7.5,7.5,7.5s7.5-3.357,7.5-7.5v-78.798    c0-12.44-7.793-23.818-19.391-28.313c-8.697-3.372-15.619-10.293-18.989-18.989c-4.495-11.599-15.874-19.392-28.313-19.392h-78.8    c-4.143,0-7.5,3.358-7.5,7.5S269.342,107.991,273.484,107.991z"/>
	</g>
</g>















</svg>
