<?xml version="1.0" encoding="iso-8859-1"?>
<!-- Generator: Adobe Illustrator 21.0.0, SVG Export Plug-In . SVG Version: 6.00 Build 0)  -->
<svg xmlns="http://www.w3.org/2000/svg" xmlns:xlink="http://www.w3.org/1999/xlink" version="1.1" id="Capa_1" x="0px" y="0px" viewBox="0 0 511.969 511.969" style="enable-background:new 0 0 511.969 511.969;" xml:space="preserve" width="512" height="512">
<g>
	<g>
		<path style="fill:#E4E3E1;" d="M433.071,60.717H27.107c-10.813,0-19.659,8.847-19.659,19.659v351.901    c0,10.813,8.847,19.659,19.659,19.659h405.964c10.813,0,19.659-8.847,19.659-19.659V80.376    C452.731,69.563,443.884,60.717,433.071,60.717z"/>
		<rect x="109.22" y="109.428" style="fill:#D1D0CF;" width="22.011" height="342.509"/>
		<path style="fill:#B4E1F9;" d="M7.448,432.277c0,10.813,8.847,19.659,19.659,19.659h84.124V112.814H7.448V432.277z"/>
		<path style="fill:#4B98D4;" d="M433.071,60.717H27.107c-10.813,0-19.659,8.847-19.659,19.659v32.438h445.282V80.376    C452.731,69.563,443.884,60.717,433.071,60.717z"/>
		<path style="fill:#ED5454;" d="M59.545,60.717H27.107c-10.813,0-19.659,8.847-19.659,19.659v32.438h52.097V60.717z"/>
		<path style="fill:#72BDF6;" d="M27.448,432.277V112.814h-20v319.463c0,10.813,8.847,19.659,19.659,19.659h20    C36.295,451.936,27.448,443.089,27.448,432.277z"/>
		<path style="fill:#EA3F3F;" d="M47.108,60.717h-20c-10.813,0-19.66,8.847-19.66,19.659v32.438h20V80.376    C27.448,69.563,36.295,60.717,47.108,60.717z"/>
		
			<rect x="357.536" y="176.424" transform="matrix(0.7071 0.7071 -0.7071 0.7071 310.6138 -187.9214)" style="fill:#FFC964;" width="49.225" height="209.118"/>
		
			<rect x="266.607" y="260.92" transform="matrix(0.7071 -0.7071 0.7071 0.7071 -82.2077 341.5356)" style="fill:#F3A334;" width="209.118" height="18.163"/>
		<path style="fill:#ED5454;" d="M501.49,182.317l-20.675-20.675c-3.902-3.902-10.23-3.902-14.132,0l-28.004,28.004l34.807,34.807    l28.004-28.004C505.392,192.547,505.392,186.219,501.49,182.317z"/>
		<path style="fill:#EA3F3F;" d="M480.815,161.642c-3.903-3.902-10.23-3.902-14.132,0l-28.004,28.004l12.843,12.843l35.07-35.07    L480.815,161.642z"/>
		
			<rect x="452.451" y="173.669" transform="matrix(0.7071 -0.7071 0.7071 0.7071 -4.0549 386.7738)" style="fill:#EA3F3F;" width="24.798" height="49.225"/>
		
			<rect x="441.469" y="178.218" transform="matrix(0.7071 -0.7071 0.7071 0.7071 0.4946 375.7932)" style="fill:#D4352F;" width="24.798" height="18.163"/>
		<path style="fill:#D1D0CF;" d="M290.81,337.514l-26.867,55.731c-1.622,3.365,2.579,7.566,5.944,5.944l55.731-26.867    L290.81,337.514z"/>
		<path style="fill:#C1C1C1;" d="M297.077,364.186l6.637-13.767l-12.904-12.904l-26.867,55.731    c-1.622,3.365,2.579,7.566,5.944,5.944l13.439-6.479L297.077,364.186z"/>
		<path style="fill:#525468;" d="M277.952,364.186l-14.01,29.06c-1.622,3.364,2.579,7.566,5.944,5.944l29.06-14.01L277.952,364.186z    "/>
		<path style="fill:#3E4151;" d="M290.856,377.09l-12.904-12.904l-14.009,29.06c-1.622,3.364,2.579,7.566,5.944,5.944l13.439-6.479    L290.856,377.09z"/>
	</g>
	<g>
		<path d="M204.518,171.46h198.248c4.143,0,7.5-3.358,7.5-7.5s-3.357-7.5-7.5-7.5H204.518c-4.143,0-7.5,3.358-7.5,7.5    S200.375,171.46,204.518,171.46z"/>
		<path d="M204.518,205.078h198.248c4.143,0,7.5-3.358,7.5-7.5s-3.357-7.5-7.5-7.5H204.518c-4.143,0-7.5,3.358-7.5,7.5    S200.375,205.078,204.518,205.078z"/>
		<path d="M35.723,163.96c0,4.142,3.357,7.5,7.5,7.5h31.43c4.143,0,7.5-3.358,7.5-7.5s-3.357-7.5-7.5-7.5h-31.43    C39.08,156.46,35.723,159.818,35.723,163.96z"/>
		<path d="M74.652,190.078h-31.43c-4.143,0-7.5,3.358-7.5,7.5s3.357,7.5,7.5,7.5h31.43c4.143,0,7.5-3.358,7.5-7.5    S78.795,190.078,74.652,190.078z"/>
		<path d="M74.652,223.694h-31.43c-4.143,0-7.5,3.358-7.5,7.5s3.357,7.5,7.5,7.5h31.43c4.143,0,7.5-3.358,7.5-7.5    S78.795,223.694,74.652,223.694z"/>
		<path d="M74.652,257.312h-31.43c-4.143,0-7.5,3.358-7.5,7.5s3.357,7.5,7.5,7.5h31.43c4.143,0,7.5-3.358,7.5-7.5    S78.795,257.312,74.652,257.312z"/>
		<path d="M74.652,290.928h-31.43c-4.143,0-7.5,3.358-7.5,7.5s3.357,7.5,7.5,7.5h31.43c4.143,0,7.5-3.358,7.5-7.5    S78.795,290.928,74.652,290.928z"/>
		<path d="M74.652,324.545h-31.43c-4.143,0-7.5,3.358-7.5,7.5s3.357,7.5,7.5,7.5h31.43c4.143,0,7.5-3.358,7.5-7.5    S78.795,324.545,74.652,324.545z"/>
		<path d="M74.652,391.779h-31.43c-4.143,0-7.5,3.358-7.5,7.5s3.357,7.5,7.5,7.5h31.43c4.143,0,7.5-3.358,7.5-7.5    S78.795,391.779,74.652,391.779z"/>
		<path d="M74.652,358.163h-31.43c-4.143,0-7.5,3.358-7.5,7.5s3.357,7.5,7.5,7.5h31.43c4.143,0,7.5-3.358,7.5-7.5    S78.795,358.163,74.652,358.163z"/>
		<path d="M165.143,156.46h-13.125c-4.143,0-7.5,3.358-7.5,7.5s3.357,7.5,7.5,7.5h13.125c4.143,0,7.5-3.358,7.5-7.5    S169.285,156.46,165.143,156.46z"/>
		<path d="M165.143,223.694h-13.125c-4.143,0-7.5,3.358-7.5,7.5s3.357,7.5,7.5,7.5h13.125c4.143,0,7.5-3.358,7.5-7.5    S169.285,223.694,165.143,223.694z"/>
		<path d="M165.143,290.928h-13.125c-4.143,0-7.5,3.358-7.5,7.5s3.357,7.5,7.5,7.5h13.125c4.143,0,7.5-3.358,7.5-7.5    S169.285,290.928,165.143,290.928z"/>
		<path d="M165.143,358.163h-13.125c-4.143,0-7.5,3.358-7.5,7.5s3.357,7.5,7.5,7.5h13.125c4.143,0,7.5-3.358,7.5-7.5    S169.285,358.163,165.143,358.163z"/>
		<path d="M486.171,155.996c-6.822-6.821-17.918-6.821-24.74,0l-1.148,1.148c0-15.254,0-62.008,0-77.111    c0-14.976-12.184-27.159-27.159-27.159c-6.663,0-398.725,0-405.964,0C12.184,52.875,0,65.058,0,80.034    c0,5.979,0,350.187,0,351.901c0,14.976,12.184,27.16,27.159,27.16l185.482,0c4.143,0,7.5-3.358,7.5-7.5s-3.357-7.5-7.5-7.5    h-93.858V119.972h326.499c0,0.598-0.01,51.56,0.018,52.155c-4.414,4.414-39.376,39.377-51.567,51.568H204.518    c-4.143,0-7.5,3.358-7.5,7.5s3.357,7.5,7.5,7.5h174.216l-18.617,18.617H204.518c-4.143,0-7.5,3.358-7.5,7.5s3.357,7.5,7.5,7.5    h140.598l-18.617,18.617H204.518c-4.143,0-7.5,3.358-7.5,7.5s3.357,7.5,7.5,7.5h106.981l-18.617,18.617h-88.364    c-4.143,0-7.5,3.358-7.5,7.5s3.357,7.5,7.5,7.5h76.875l-8.976,18.617h-67.899c-4.143,0-7.5,3.358-7.5,7.5s3.357,7.5,7.5,7.5    h60.667l-7.948,16.485c-0.334,0.693-0.583,1.408-0.765,2.132h-51.955c-4.143,0-7.5,3.358-7.5,7.5s3.357,7.5,7.5,7.5h63.881    c1.179,0,3.287-0.448,4.797-1.176c0.001-0.001,55.73-26.868,55.73-26.868c0.696-0.336,1.451-0.855,2.048-1.453l114.309-114.309    v17.955c0,4.142,3.357,7.5,7.5,7.5s7.5-3.358,7.5-7.5v-32.955c0,0,43.189-43.189,46.563-46.563    c3.305-3.304,5.124-7.697,5.124-12.37c0-4.672-1.819-9.065-5.123-12.369L486.171,155.996z M15,80.034    c0-6.705,5.454-12.159,12.159-12.159h24.938v37.097H15V80.034z M103.783,444.094H27.159c-6.792,0-12.159-5.546-12.159-12.159    V119.972c9.436,0,79.443,0,88.783,0V444.094z M67.098,104.972V67.875h366.025c6.704,0,12.159,5.455,12.159,12.159v24.938    C431.678,104.972,85.143,104.972,67.098,104.972z M475.563,166.603l20.675,20.675c0.975,0.974,0.975,2.551,0,3.525l-5.165,5.165    l-24.201-24.2l5.166-5.166C473.012,165.628,474.59,165.628,475.563,166.603z M325.67,361.373l-6.797-6.797l137.262-137.261    l6.797,6.797L325.67,361.373z M274.538,388.303l5.634-11.685l6.052,6.052L274.538,388.303z M438.731,199.91l6.797,6.797    L308.266,343.969l-6.797-6.797C308.943,329.698,431.551,207.09,438.731,199.91z M473.539,213.504l-24.201-24.201l6.928-6.927    l24.201,24.201L473.539,213.504z M300.537,375.769l-13.465-13.465l5.958-12.358l19.864,19.865L300.537,375.769z"/>
		<path d="M433.123,459.094c14.976,0,27.159-12.184,27.159-27.159V315.928c0-4.142-3.357-7.5-7.5-7.5s-7.5,3.358-7.5,7.5v116.006    c0,6.705-5.454,12.159-12.159,12.159H247.642c-4.143,0-7.5,3.358-7.5,7.5s3.357,7.5,7.5,7.5H433.123z"/>
	</g>
</g>















</svg>
