<svg height="512pt" viewBox="0 -56 512 512" width="512pt" xmlns="http://www.w3.org/2000/svg"><path d="m94.859375 106.28125h322.167969v182.050781h-322.167969zm0 0" fill="#9ee2f8"/><path d="m404.921875 334.164062h12.105469v-45.832031h-322.167969v45.832031h232.136719" fill="#5e6e82"/><path d="m299.417969 375.777344h-88.164063l15.125-41.613282h57.917969zm0 0" fill="#e3e3e3"/><path d="m260.609375 195.601562h-1.132813c-8.011718 0-14.507812-6.496093-14.507812-14.511718v-12.492188c0-8.015625 6.496094-14.511718 14.507812-14.511718h1.132813c8.015625 0 14.511719 6.496093 14.511719 14.511718v12.492188c0 8.015625-6.5 14.511718-14.511719 14.511718zm0 0" fill="#f2d1a5"/><path d="m222.359375 243.234375v-16.265625c0-7.84375 2.261719-15.519531 6.511719-22.113281 3.722656-5.78125 10.128906-9.273438 17.003906-9.273438h27.960938c6.878906 0 13.28125 3.492188 17.007812 9.273438 4.25 6.59375 6.507812 14.269531 6.507812 22.113281v16.265625zm0 0" fill="#b6baf2"/><path d="m200.675781 142.980469v45.277343h-76.34375v-45.277343" fill="#fff68e"/><path d="m163.15625 37.136719c0 15.128906-12.265625 27.394531-27.394531 27.394531-15.132813 0-27.394531-12.265625-27.394531-27.394531 0-15.132813 12.261718-27.394531 27.394531-27.394531 15.128906 0 27.394531 12.261718 27.394531 27.394531zm0 0" fill="#ff415b"/><path d="m411.722656 37.136719c0 15.128906-12.265625 27.394531-27.394531 27.394531s-27.394531-12.265625-27.394531-27.394531c0-15.132813 12.265625-27.394531 27.394531-27.394531s27.394531 12.261718 27.394531 27.394531zm0 0" fill="#ff415b"/><path d="m456.699219 155.148438h45.28125v45.28125h-45.28125zm0 0" fill="#b6baf2"/><path d="m55.300781 200.425781h-45.28125v-45.277343h45.28125zm0 0" fill="#b6baf2"/><path d="m222.359375 253.535156h74.992187c5.535157 0 10.019532-4.488281 10.019532-10.019531v-16.269531c0-9.789063-2.800782-19.3125-8.105469-27.539063-3.625-5.625-8.894531-9.765625-14.960937-11.996093.542968-2.023438.835937-4.148438.835937-6.339844v-12.492188c0-13.527344-11.007813-24.53125-24.53125-24.53125h-1.132813c-13.523437 0-24.527343 11.003906-24.527343 24.53125v12.492188c0 2.148437.277343 4.230468.800781 6.21875-6.210938 2.199218-11.613281 6.390625-15.304688 12.117187-5.300781 8.230469-8.105468 17.753907-8.105468 27.542969v16.265625c0 5.53125 4.488281 10.019531 10.019531 10.019531zm32.628906-84.660156c0-2.476562 2.015625-4.488281 4.488281-4.488281h1.132813c2.476563 0 4.488281 2.015625 4.488281 4.488281v12.496094c0 2.410156-1.917968 4.371094-4.304687 4.46875h-1.5c-2.386719-.097656-4.304688-2.058594-4.304688-4.46875zm-22.605469 58.371094c0-5.929688 1.695313-11.699219 4.910157-16.683594 1.886719-2.929688 5.097656-4.679688 8.582031-4.679688h12.871094c.242187.007813.488281.019532.730468.019532h1.132813c.246094 0 .488281-.011719.730469-.019532h12.496094c3.484374 0 6.695312 1.75 8.585937 4.679688 3.210937 4.984375 4.910156 10.753906 4.910156 16.683594v6.25h-54.949219zm0 0"/><path d="m364.40625 324.476562-.292969.066407c-5.386719 1.269531-8.722656 6.660156-7.457031 12.046875 1.085938 4.617187 5.199219 7.730468 9.746094 7.730468.757812 0 1.53125-.089843 2.300781-.269531l.292969-.066406c5.386718-1.269531 8.726562-6.664063 7.460937-12.050781-1.269531-5.386719-6.664062-8.722656-12.050781-7.457032zm0 0"/><path d="m384.703125 247.503906-.289063.070313c-5.386718 1.269531-8.726562 6.664062-7.453124 12.050781 1.085937 4.613281 5.199218 7.722656 9.742187 7.722656.761719 0 1.535156-.085937 2.308594-.269531l.289062-.066406c5.386719-1.269531 8.726563-6.667969 7.453125-12.054688-1.269531-5.382812-6.660156-8.71875-12.050781-7.453125zm0 0"/><path d="m346.1875 247.503906-.292969.066406c-5.386719 1.269532-8.722656 6.664063-7.457031 12.050782 1.085938 4.613281 5.199219 7.726562 9.746094 7.726562.757812 0 1.53125-.085937 2.300781-.269531l.292969-.066406c5.386718-1.269531 8.726562-6.660157 7.460937-12.046875-1.269531-5.390625-6.664062-8.722656-12.050781-7.460938zm0 0"/><path d="m124.332031 198.558594h76.34375c5.535157 0 10.019531-4.488282 10.019531-10.019532v-45.28125c0-5.53125-4.484374-10.019531-10.019531-10.019531-5.535156 0-10.019531 4.488281-10.019531 10.019531v35.257813h-56.304688v-35.257813c0-5.53125-4.484374-10.019531-10.019531-10.019531-5.535156 0-10.019531 4.488281-10.019531 10.019531v45.28125c0 5.53125 4.484375 10.019532 10.019531 10.019532zm0 0"/><path d="m124.332031 232.085938h38.171875c5.535156 0 10.019532-4.484376 10.019532-10.019532 0-5.53125-4.484376-10.019531-10.019532-10.019531h-38.171875c-5.535156 0-10.019531 4.488281-10.019531 10.019531 0 5.535156 4.484375 10.019532 10.019531 10.019532zm0 0"/><path d="m124.332031 264.359375h38.171875c5.535156 0 10.019532-4.484375 10.019532-10.019531 0-5.53125-4.484376-10.019532-10.019532-10.019532h-38.171875c-5.535156 0-10.019531 4.488282-10.019531 10.019532 0 5.535156 4.484375 10.019531 10.019531 10.019531zm0 0"/><path d="m318.492188 154.539062h68.363281c5.535156 0 10.023437-4.488281 10.023437-10.019531 0-5.535156-4.488281-10.023437-10.023437-10.023437h-68.363281c-5.53125 0-10.019532 4.488281-10.019532 10.023437 0 5.53125 4.488282 10.019531 10.019532 10.019531zm0 0"/><path d="m317.453125 188.085938h69.402344c5.535156 0 10.023437-4.484376 10.023437-10.019532 0-5.53125-4.488281-10.019531-10.023437-10.019531h-69.402344c-5.535156 0-10.019531 4.488281-10.019531 10.019531 0 5.535156 4.484375 10.019532 10.019531 10.019532zm0 0"/><path d="m348.335938 221.636719h38.519531c5.535156 0 10.023437-4.488281 10.023437-10.019531 0-5.535157-4.488281-10.023438-10.023437-10.023438h-38.519531c-5.53125 0-10.019532 4.488281-10.019532 10.023438 0 5.53125 4.488282 10.019531 10.019532 10.019531zm0 0"/><path d="m501.980469 145.40625h-45.28125c-5.535157 0-10.019531 4.488281-10.019531 10.019531v12.621094h-19.632813v-61.484375c0-5.535156-4.484375-10.023438-10.019531-10.023438h-95.265625v-13.933593c0-16.511719 11.441406-30.398438 26.8125-34.160157 4.71875 15.265626 18.960937 26.386719 35.753906 26.386719 20.628906 0 37.414063-16.785156 37.414063-37.417969 0-20.628906-16.785157-37.414062-37.414063-37.414062-17.421875 0-32.097656 11.96875-36.246094 28.113281-26.25 4.25-46.359375 27.0625-46.359375 54.492188v13.933593h-83.355468v-13.933593c0-27.429688-20.113282-50.242188-46.363282-54.492188-4.148437-16.144531-18.824218-28.113281-36.242187-28.113281-20.632813 0-37.417969 16.785156-37.417969 37.414062 0 20.632813 16.785156 37.417969 37.417969 37.417969 16.789062 0 31.03125-11.121093 35.75-26.386719 15.371093 3.765626 26.8125 17.648438 26.8125 34.160157v13.933593h-103.464844c-5.535156 0-10.019531 4.488282-10.019531 10.023438v61.484375h-19.519532v-12.621094c0-5.53125-4.484374-10.019531-10.019531-10.019531h-45.28125c-5.535156 0-10.019531 4.488281-10.019531 10.019531v45.28125c0 5.53125 4.484375 10.019531 10.019531 10.019531h45.28125c5.535157 0 10.019531-4.488281 10.019531-10.019531v-12.621093h19.519532v146.355468c0 5.53125 4.484375 10.019532 10.019531 10.019532h117.214844l-7.839844 21.574218h-15.121094c-3.132812 0-6.085937 1.464844-7.980469 3.960938l-10.125 13.339844c-3.347656 4.40625-2.484374 10.695312 1.921876 14.039062 4.40625 3.347656 10.691406 2.488281 14.039062-1.921875l7.121094-9.375h123.710937l7.117188 9.375c1.972656 2.597656 4.960937 3.964844 7.988281 3.964844 2.113281-.003907 4.242188-.667969 6.050781-2.042969 4.410157-3.34375 5.269531-9.628906 1.921875-14.039062l-10.125-13.339844c-1.894531-2.496094-4.847656-3.960938-7.980468-3.960938h-16.335938l-7.839844-21.574218h28.398438c5.535156 0 10.019531-4.488282 10.019531-10.019532s-4.484375-10.019531-10.019531-10.019531h-222.117188v-25.789063h302.128906v25.789063h-2.085937c-5.535156 0-10.019531 4.488281-10.019531 10.019531s4.484375 10.019532 10.019531 10.019532h12.105469c5.535156 0 10.019531-4.488282 10.019531-10.019532v-146.355468h19.632813v12.621093c0 5.535157 4.484374 10.019531 10.019531 10.019531h45.28125c5.535156 0 10.019531-4.484374 10.019531-10.019531v-45.277343c0-5.535157-4.484375-10.023438-10.019531-10.023438zm-117.652344-125.367188c9.578125 0 17.375 7.792969 17.375 17.375 0 9.582032-7.796875 17.375-17.375 17.375-9.582031 0-17.375-7.792968-17.375-17.375 0-9.578124 7.792969-17.375 17.375-17.375zm-248.566406 34.75c-9.582031 0-17.375-7.792968-17.375-17.375 0-9.582031 7.792969-17.375 17.375-17.375 9.578125 0 17.371093 7.792969 17.371093 17.375 0 9.582032-7.792968 17.375-17.371093 17.375zm-90.480469 135.898438h-25.242188v-25.242188h25.242188zm188.117188 153.773438h43.878906l7.839844 21.574218h-59.558594zm173.609374-65.871094h-302.128906v-99.101563c.066406-.464843.113282-.9375.113282-1.421875s-.046876-.957031-.113282-1.421875v-60.0625h302.128906zm84.953126-87.902344h-25.242188v-25.242188h25.242188zm0 0"/><path d="m161.960938 153.3125c.757812 0 1.53125-.085938 2.300781-.265625l.292969-.070313c5.386718-1.269531 8.726562-6.660156 7.457031-12.046874-1.265625-5.390626-6.660157-8.722657-12.046875-7.460938l-.292969.070312c-5.386719 1.265626-8.726563 6.660157-7.457031 12.046876 1.085937 4.617187 5.199218 7.726562 9.746094 7.726562zm0 0"/></svg>